<!DOCTYPE svg PUBLIC "-//W3C//DTD SVG 20010904//EN" "http://www.w3.org/TR/2001/REC-SVG-20010904/DTD/svg10.dtd">
<svg version="1.0" xmlns="http://www.w3.org/2000/svg" width="400px" height="250px" viewBox="0 0 4000 2500" preserveAspectRatio="xMidYMid meet">
<g id="layer101" fill="#000000" stroke="none">
 <path d="M570 2045 l0 -275 34 0 c33 0 36 3 116 141 45 77 96 165 114 195 l33 55 113 -196 c111 -193 113 -195 146 -195 l34 0 0 275 0 275 -35 0 -35 0 -2 -202 -3 -203 -96 165 c-80 136 -101 166 -122 168 -22 3 -34 -13 -123 -164 l-99 -167 -3 202 -2 201 -35 0 -35 0 0 -275z"/>
 <path d="M1342 2303 c-79 -39 -84 -157 -10 -203 27 -16 51 -20 136 -20 l102 0 0 -30 c0 -19 -11 -42 -29 -62 -25 -28 -35 -32 -78 -32 -31 0 -66 9 -97 24 -47 22 -49 23 -63 5 -18 -25 -13 -36 27 -59 48 -29 184 -35 234 -11 64 31 76 69 76 250 l0 155 -35 0 c-28 0 -35 -4 -35 -20 0 -20 0 -20 -32 0 -42 25 -148 27 -196 3z m152 -47 c44 -18 76 -61 76 -102 l0 -34 -62 0 c-35 0 -80 5 -101 11 -68 18 -77 92 -15 122 41 20 59 21 102 3z"/>
 <path d="M1785 2307 c-64 -25 -70 -32 -57 -62 9 -20 17 -25 30 -19 72 31 129 45 161 39 52 -9 81 -31 81 -60 0 -33 -30 -50 -123 -69 -89 -18 -120 -35 -137 -76 -25 -59 7 -124 73 -149 54 -21 192 -10 235 17 10 7 11 14 1 35 -14 32 -16 32 -60 10 -19 -10 -57 -17 -88 -17 -46 0 -57 4 -77 27 -13 16 -24 32 -24 38 0 22 43 48 97 59 135 26 173 53 173 125 -1 78 -58 115 -177 114 -43 0 -91 -6 -108 -12z"/>
 <path d="M2183 2300 c-41 -25 -53 -48 -53 -104 0 -36 6 -52 29 -78 l29 -33 117 -3 117 -4 -7 -36 c-16 -89 -102 -114 -209 -60 -38 20 -40 20 -53 2 -19 -26 -13 -36 37 -61 60 -31 179 -32 227 -3 62 37 68 57 71 237 l4 163 -36 0 c-29 0 -36 -4 -36 -20 l0 -20 -37 20 c-51 27 -155 28 -200 0z m149 -40 c49 -14 88 -61 88 -107 l0 -36 -84 5 c-108 6 -138 23 -134 76 2 31 9 40 38 54 41 21 43 21 92 8z"/>
 <path d="M2620 2025 l0 -295 35 0 35 0 0 295 0 295 -35 0 -35 0 0 -295z"/>
 <path d="M2840 2110 l0 -210 35 0 35 0 0 210 0 210 -35 0 -35 0 0 -210z"/>
 <path d="M3050 2025 l0 -295 35 0 35 0 0 110 0 111 31 -23 c44 -33 160 -38 216 -9 73 37 113 105 113 191 0 126 -84 210 -209 210 -67 0 -106 -12 -138 -42 l-23 -21 0 31 c0 29 -3 32 -30 32 l-30 0 0 -295z m252 235 c109 -31 142 -191 54 -268 -47 -41 -94 -48 -151 -23 -59 26 -85 69 -85 141 0 71 26 115 83 140 49 23 51 23 99 10z"/>
 <path d="M2832 1798 c-30 -30 -3 -72 44 -66 34 4 53 31 38 56 -13 21 -64 28 -82 10z"/>
 <path d="M1690 1369 c-30 -10 -146 -64 -258 -120 -213 -105 -242 -128 -211 -165 25 -31 517 -264 556 -264 20 0 56 12 83 27 41 23 51 25 64 14 50 -42 -22 -173 -84 -154 -8 3 -120 53 -248 110 -243 110 -322 134 -322 97 0 -11 34 -64 75 -119 41 -54 75 -106 75 -115 0 -9 -14 -56 -31 -105 -40 -116 -50 -234 -24 -286 24 -46 43 -58 88 -59 53 0 82 18 155 94 l64 66 328 0 328 0 64 -66 c73 -77 102 -94 157 -94 32 0 44 6 65 31 14 17 29 42 32 56 13 49 -4 169 -35 259 -17 48 -31 96 -31 104 0 9 34 61 75 116 83 110 91 134 45 134 -37 0 -80 -17 -325 -130 -110 -50 -212 -92 -227 -92 -49 -2 -93 59 -86 117 5 44 31 54 69 26 19 -15 51 -26 78 -29 42 -3 67 6 309 124 214 104 264 132 268 151 4 13 2 29 -4 36 -6 7 -119 66 -251 131 -183 90 -253 120 -291 124 -55 5 -61 -2 -30 -41 11 -14 27 -42 35 -61 19 -46 4 -87 -49 -134 -45 -39 -60 -40 -91 -6 -31 33 -31 39 0 89 28 45 32 96 10 119 -34 34 -188 35 -225 1 -27 -25 -26 -71 5 -120 31 -51 31 -57 -1 -89 -34 -34 -46 -33 -90 6 -53 47 -68 88 -49 134 8 19 24 47 35 61 11 14 20 30 20 34 0 15 -62 9 -120 -12z m125 -374 c14 -13 25 -29 25 -35 0 -16 -47 -60 -65 -60 -21 0 -55 36 -55 58 0 30 29 58 63 61 4 1 19 -10 32 -24z m445 5 c34 -34 20 -80 -27 -95 -17 -4 -29 1 -48 19 -31 31 -31 41 0 71 29 30 49 31 75 5z"/>
 </g>

</svg>